<?xml version="1.0" encoding="utf-8"?>
<!-- Generator: Adobe Illustrator 16.0.4, SVG Export Plug-In . SVG Version: 6.00 Build 0)  -->
<!DOCTYPE svg PUBLIC "-//W3C//DTD SVG 1.1//EN" "http://www.w3.org/Graphics/SVG/1.1/DTD/svg11.dtd">
<svg version="1.1" id="Layer_1" xmlns="http://www.w3.org/2000/svg" xmlns:xlink="http://www.w3.org/1999/xlink" x="0px" y="0px"
	 width="535.451px" height="478.01px" viewBox="0 0 535.451 478.01" enable-background="new 0 0 535.451 478.01"
	 xml:space="preserve">
<path fill="#ADF8D1" d="M124.64,93.66c1.984,4.865,2.994,10.074,2.97,15.329c0,17.03-10.17,31.091-23.33,33.2l-0.26-0.061
	C108.225,124.964,115.189,108.594,124.64,93.66z"/>
<path fill="#FF5576" d="M299.59,74.55c14.8,0,26.78,14.979,26.78,33.471S314.39,141.5,299.59,141.5
	c-10.97,0-21.521-8.261-25.65-20.09h-10.05v80.619h-80.34v-10.06c11.82-4.12,20.08-14.681,20.08-25.66
	c0-14.79-14.98-26.78-33.47-26.78c-18.49,0-33.472,11.99-33.472,26.78c0,10.979,8.262,21.54,20.08,25.66v10.06H100.87l-0.24,0.03
	c-2.534-20.017-1.386-40.327,3.39-59.931l0.26,0.061c13.16-2.109,23.33-16.17,23.33-33.2c0.024-5.255-0.984-10.464-2.97-15.329
	c30.166-47.778,82.745-76.729,139.25-76.671V94.63h10.05C278.07,82.81,288.62,74.55,299.59,74.55z"/>
<path fill="#ADF8D1" d="M428.31,176.93c0.221,8.386-0.197,16.776-1.25,25.1H369.9v-10.06c11.82-4.12,20.08-14.681,20.08-25.66
	c0-14.79-14.979-26.78-33.47-26.78s-33.47,11.99-33.47,26.78c0,10.979,8.26,21.54,20.08,25.66v10.06h-79.23V121.41h10.05
	c4.13,11.829,14.682,20.09,25.65,20.09c14.8,0,26.78-14.979,26.78-33.479S314.39,74.55,299.59,74.55
	c-10.97,0-21.521,8.261-25.65,20.08h-10.05V16.99c0.5,0,0.99,0.011,1.49,0.011C353.67,17.81,426.03,88.8,428.31,176.93
	L428.31,176.93z"/>
<path fill="#71C2FF" d="M348.53,339.301c-7.006,15.142-10.64,31.625-10.648,48.31v0.12h-0.98v-0.53
	C329.05,382.01,324,373.68,324,365.1c0-12.312,10.38-22.68,24.52-25.812L348.53,339.301z"/>
<path fill="#FCCA3D" d="M204.6,365.1c0,8.74-5.24,17.22-13.34,22.38v0.25h-1.45c0.01-16.053-3.273-31.938-9.648-46.67
	c-0.28-0.65-0.57-1.29-0.86-1.93C193.84,342.039,204.6,352.56,204.6,365.1L204.6,365.1z"/>
<path fill="#71C2FF" d="M263.88,308.131v79.6h-72.62v-0.25c8.1-5.16,13.34-13.64,13.34-22.38c0-12.54-10.76-23.062-25.3-25.97
	c-6.338-13.962-15.426-26.502-26.72-36.87c-28.645-26.189-47.056-61.7-51.95-100.2l0.24-0.03h55.898v-10.06
	c-11.818-4.12-20.08-14.681-20.08-25.66c0-14.79,14.98-26.78,33.472-26.78c18.488,0,33.47,11.99,33.47,26.78
	c0,10.979-8.26,21.54-20.08,25.66v10.06h80.33v79.32h-0.78c-4.108-11.83-14.67-20.09-25.648-20.09c-14.79,0-26.771,15-26.771,33.479
	s11.98,33.471,26.771,33.471c10.979,0,21.54-8.25,25.648-20.08H263.88L263.88,308.131z"/>
<path fill="#FCCA3D" d="M369.9,202.03h57.16c-4.841,38.109-22.926,73.306-51.09,99.431c-11.529,10.7-20.852,23.557-27.44,37.841
	l-0.01-0.012c-14.14,3.132-24.52,13.5-24.52,25.811c0,8.58,5.05,16.91,12.898,22.1v0.53h-73.02v-79.6h-0.78
	c-4.109,11.83-14.67,20.08-25.648,20.08c-14.79,0-26.771-14.98-26.771-33.472c0-18.49,11.98-33.479,26.771-33.479
	c10.979,0,21.539,8.261,25.648,20.091h0.78v-79.32h79.24v-10.061c-11.82-4.119-20.08-14.68-20.08-25.659
	c0-14.79,14.979-26.78,33.47-26.78s33.47,11.99,33.47,26.78c0,10.979-8.26,21.54-20.08,25.659L369.9,202.03L369.9,202.03z"/>
<path fill="#56568C" d="M336.9,387.999H191.26H190v35h0.42H338v-35H336.9z"/>
<path fill="#4A4A75" d="M337.88,422.73v36.14H190.42h-0.61v-36.14h0.61H337.88L337.88,422.73z"/>
<path fill="#56568C" d="M337.88,458.869v31.062c-0.005,2.802-2.278,5.07-5.08,5.068H194.89c-2.801,0.006-5.075-2.263-5.08-5.062
	c0-0.002,0-0.004,0-0.006v-31.062H337.88z"/>
<path fill="none" d="M203.63,166.31c0-10.475-7.52-19.538-18.47-23.939c-10.952,4.399-18.472,13.466-18.472,23.939
	c0,10.475,7.521,20.547,18.472,25.033C196.109,186.857,203.63,176.781,203.63,166.31z"/>
<path fill="#DD476B" d="M134.02,142.13l0.26,0.061c13.16-2.109,23.33-16.17,23.33-33.199c0.024-5.256-0.984-10.465-2.97-15.33
	c24.522-38.792,64.122-65.59,109.25-73.932v-2.74c-56.505-0.058-109.084,28.893-139.25,76.671c1.984,4.865,2.994,10.074,2.97,15.329
	c0,17.03-10.17,31.091-23.33,33.2l-0.26-0.061c-4.774,19.604-5.924,39.914-3.39,59.931l0.24-0.03h29.757
	C128.097,182.023,129.246,161.722,134.02,142.13L134.02,142.13z"/>
<path fill="#DD476B" d="M233.63,166.31c0-14.79-14.98-26.78-33.47-26.78c-5.137-0.019-10.229,0.945-15,2.841
	c10.95,4.399,18.47,13.466,18.47,23.939c0,10.475-7.521,20.547-18.47,25.033c0.53,0.218,1.062,0.436,1.608,0.627v10.06h26.78v-10.06
	C225.37,187.85,233.63,177.29,233.63,166.31z"/>
<path fill="none" d="M183.55,202.03h3.22v-10.06c-0.547-0.191-1.078-0.409-1.608-0.627c-0.532,0.218-1.063,0.436-1.61,0.627
	L183.55,202.03L183.55,202.03z"/>
<path fill="#5FADDD" d="M234.6,365.1c0-12.54-10.76-23.062-25.3-25.97c-6.338-13.962-15.426-26.502-26.72-36.87
	c-28.645-26.189-47.056-61.7-51.95-100.2l0.24-0.03h-30l-0.24,0.03c4.896,38.5,23.307,74.011,51.95,100.2
	c11.294,10.368,20.382,22.908,26.72,36.87c14.54,2.908,25.3,13.43,25.3,25.97c0,8.74-5.24,17.22-13.34,22.38v0.25h30v-0.25
	C229.36,382.32,234.6,373.841,234.6,365.1L234.6,365.1z"/>
<path fill="#5FADDD" d="M183.55,191.97c0.547-0.191,1.078-0.409,1.61-0.627c-10.949-4.486-18.472-14.562-18.472-25.033
	c0-10.473,7.52-19.538,18.472-23.939c-4.773-1.896-9.865-2.858-15-2.841c-18.49,0-33.472,11.99-33.472,26.78
	c0,10.979,8.262,21.54,20.08,25.66v10.06h26.78L183.55,191.97L183.55,191.97z"/>
<path fill="#39395B" d="M190.42,422.73h-0.61v36.14h0.61h29.39v-36.14H190.42L190.42,422.73z"/>
<path fill="#4A4A75" d="M191.26,387.999H190v35h0.42H220v-35H191.26z"/>
<path fill="#4A4A75" d="M219.81,489.93v-31.061h-30v31.062c0.001,2.801,2.273,5.071,5.074,5.068c0.002,0,0.004,0,0.006,0h30
	c-2.801,0.006-5.075-2.263-5.08-5.062C219.81,489.934,219.81,489.932,219.81,489.93z"/>
<path fill="#FFE666" d="M-5,168.335h79.484v31.375H-5V168.335z"/>
<path fill="#FFE666" d="M22.472,304.441l68.835-39.743l15.688,27.171l-68.835,39.743L22.472,304.441z"/>
<path fill="#FFE666" d="M417.345,293.796l15.688-27.17l68.835,39.742l-15.688,27.17L417.345,293.796z"/>
<path fill="#FFE666" d="M450.966,170.54h79.485v31.374h-79.485V170.54L450.966,170.54z"/>
<path fill="#FFE666" d="M418.445,78.377l68.836-39.744l15.688,27.17l-68.835,39.743L418.445,78.377z"/>
<path fill="#FFE666" d="M23.576,63.894l15.687-27.169l68.834,39.743L92.41,103.636L23.576,63.894z"/>
</svg>
